<svg version="1.1" xmlns="http://www.w3.org/2000/svg" x="0px" y="0px" viewBox="0 0 150.4 39.6" xml:space="preserve">
<g>
	<g>
		<path d="M45.1,39.4h1.3l1.6-4.3h5.3l1.6,4.3H57l-5.1-13.8H48V26c0.8,0.1,1.6,0.1,1.6,1c0,0.1-0.2,0.9-0.4,1.2L45.1,39.4z M50.5,28.1l2.4,6h-4.6L50.5,28.1z"/>
		<path d="M63.8,39.4H66V33h1.3l3.7,6.4h2.4l-3.8-6.8c1.6-0.3,3.2-1,3.2-3.4c0-3.7-4.3-3.7-5.8-3.7h-5.1V26c1.9,0.3,2,0.3,2,2.3V39.4z M66,28.3c0-1.5,0-1.9,1.4-1.9c1.7,0,3,0.6,3,2.8c0,2.3-1.9,2.7-3.2,2.7H66V28.3z"/>
		<path d="M89.2,37.4c-0.6,0.4-1.7,1-3.6,1c-2.9,0-4-2.9-4-6.2c0-2.6,0.5-5.8,3.5-5.8c2.2,0,3.4,2,3.5,3.1h0.6L89,26.1c-1-0.3-2.3-0.6-4.1-0.6c-4.6,0-5.8,3-5.8,6.8c0,4.6,1.6,7.3,6.1,7.3c2.1,0,3.3-0.5,4-0.8V37.4z"/>
		<path d="M96.3,39.4h2.3v-6.7h5.6v6.7h2.3V25.5h-2.3v6.1h-5.6v-6.4l-4.4,0.5v0.5c2,0.2,2.1,0.4,2.1,2V39.4z"/>
		<path d="M113.1,39.4h5.8v-0.5c-1.5,0-1.8-0.3-1.8-1.9v-8.8c0-1.6,0.3-1.9,1.8-1.9v-0.5h-5.8v0.5c1.5,0,1.8,0.3,1.8,1.9v8.8c0,1.6-0.3,1.9-1.8,1.9V39.4z"/>
		<path d="M129.1,39.4h1.8l5.1-13.8h-1.3l-4,11.3h0l-4.1-11.3h-4V26c1.7,0.3,1.8,0.3,2.5,2.2L129.1,39.4z"/>
		<path d="M141.7,39.4h8.3l0.1-3h-0.6c-0.1,1.6-0.7,2-1.9,2h-2.3c-1,0-1.3,0-1.3-1.2v-4.6h2.5c1.2,0,1.7,0.7,1.7,1.8h0.6v-4.3h-0.6c-0.1,0.7-0.3,1.6-1.7,1.6H144v-4.1c0-1,0.3-1.1,1.3-1.1h1.6c1.4,0,2.2,0.4,2.2,2.1h0.6l-0.1-3h-9.9V26c1.9,0.3,2,0.3,2,2.3V39.4z"/>
	</g>
	<path d="M1,9.5h32.2V6.1H1V9.5z M1,37h32.2v-2.3H1V37z M0,39.6h34.5v-1.7H0L0,39.6z M1.7,13.7l-0.2,5v4.8l0.2,5.9l0.2,4l0.6,0.2h1.9L5,33.5l0-4l0.2-6v-4.8l-0.2-5l-0.2-3.1l-0.4-0.2H2.3l-0.4,0.2L1.7,13.7z M29.3,13.7l-0.2,5v4.8l0.2,5.9l0.2,4l0.6,0.2h1.9l0.5-0.2l0-4l0.2-6v-4.8l-0.2-5l-0.2-3.1l-0.4-0.2h-2.1l-0.4,0.2L29.3,13.7z M10.5,13.7l-0.2,5v4.8l0.2,5.9l0.2,4l0.6,0.2h1.9l0.5-0.2l0-4l0.2-6v-4.8l-0.2-5l-0.2-3.1l-0.4-0.2H11l-0.4,0.2L10.5,13.7z M20.6,13.7l-0.2,5v4.8l0.2,5.9l0.2,4l0.6,0.2h1.9l0.5-0.2l0-4l0.2-6v-4.8l-0.2-5l-0.2-3.1l-0.4-0.2h-2.1l-0.4,0.2L20.6,13.7z M17,0.1L0.2,4l0.7,1.2h32.2L33.7,4L17,0.1z"/>
	<path d="M45,15.9h5.8v-0.5c-1.5,0-1.8-0.3-1.8-1.9V4.6c0-1.6,0.3-1.9,1.8-1.9V2.2H45v0.5c1.5,0,1.8,0.3,1.8,1.9v8.8c0,1.6-0.3,1.9-1.8,1.9V15.9z M55.5,15.9h1.3V4.2h0l6.9,11.7h2V2h-1.3v11.2h0L57.8,2h-4.4v0.5c1.8,0.4,2.1,0.3,2.1,2.2V15.9z M73.1,15.9h2.3V3h1.4C78.4,3,79,3.5,79,5.1h0.6l-0.1-3H68.9l-0.1,3h0.6c0.1-1.5,0.6-2,2.2-2h1.4V15.9z M83.3,15.9h8.3l0.1-3H91c-0.1,1.6-0.7,2-1.9,2h-2.3c-1,0-1.3,0-1.3-1.2V9.1h2.5c1.2,0,1.7,0.7,1.7,1.8h0.6V6.6h-0.6c-0.1,0.7-0.3,1.6-1.7,1.6h-2.5V4.1c0-1,0.3-1.1,1.3-1.1h1.6c1.4,0,2.2,0.4,2.2,2.1h0.6l-0.1-3h-9.9v0.5c1.9,0.3,2,0.3,2,2.3V15.9z M97.4,15.9h2.3V9.5h1.3l3.7,6.4h2.4l-3.8-6.8c1.6-0.3,3.2-1,3.2-3.4c0-3.7-4.3-3.7-5.9-3.7h-5.1v0.5c1.9,0.3,2,0.3,2,2.3V15.9z M99.7,4.9c0-1.5,0-1.9,1.4-1.9c1.7,0,3,0.6,3,2.8c0,2.3-1.9,2.7-3.2,2.7h-1.2V4.9z M111.3,15.9h1.3V4.2h0l6.9,11.7h2V2h-1.3v11.2h0L113.6,2h-4.4v0.5c1.8,0.4,2.1,0.3,2.1,2.2V15.9z M127.5,15.9h8.3l0.1-3h-0.6c-0.1,1.6-0.7,2-1.9,2h-2.3c-1,0-1.3,0-1.3-1.2V9.1h2.5c1.2,0,1.7,0.7,1.7,1.8h0.6V6.6H134c-0.1,0.7-0.3,1.6-1.7,1.6h-2.5V4.1c0-1,0.3-1.1,1.3-1.1h1.6c1.4,0,2.2,0.4,2.2,2.1h0.6l-0.1-3h-9.9v0.5c1.9,0.3,2,0.3,2,2.3V15.9z M143.5,15.9h2.3V3h1.4c1.6,0,2.3,0.5,2.3,2.1h0.6l-0.1-3h-10.6l-0.1,3h0.6c0.1-1.5,0.6-2,2.2-2h1.4V15.9z"/>
</g>
</svg>
