<svg width="256" height="256" viewBox="0 0 256 256" fill="none" xmlns="http://www.w3.org/2000/svg">
<rect width="256" height="256" fill="#3858E9"/>
<path d="M171.928 109.704C179.007 102.625 179.007 91.1491 171.928 84.0709C164.85 76.9926 153.374 76.9926 146.296 84.0709L84.0704 146.296C76.9922 153.375 76.9922 164.851 84.0704 171.929C91.1487 179.007 102.625 179.007 109.703 171.929L171.928 109.704ZM116.597 178.823C105.711 189.709 88.062 189.709 77.1761 178.823C66.2903 167.937 66.2903 150.288 77.1761 139.402L139.402 77.1766C150.287 66.2907 167.937 66.2907 178.823 77.1766C189.709 88.0625 189.709 105.712 178.823 116.598L116.597 178.823Z" fill="white"/>
<path d="M178.823 139.402C189.709 150.288 189.709 167.937 178.823 178.823C167.937 189.709 150.288 189.709 139.402 178.823L135.159 174.58L142.053 167.686L146.296 171.929C153.375 179.007 164.85 179.007 171.928 171.929C179.006 164.85 179.006 153.375 171.928 146.297L167.685 142.054L174.58 135.159L178.823 139.402ZM77.1762 77.1767C88.062 66.291 105.711 66.2911 116.597 77.1767L120.84 81.4199L113.946 88.3135L109.704 84.0713C102.625 76.993 91.149 76.993 84.0708 84.0713C76.9925 91.1495 76.9925 102.626 84.0708 109.704L88.313 113.946L81.4194 120.841L77.1762 116.598C66.2906 105.712 66.2905 88.0625 77.1762 77.1767Z" fill="white"/>
<path d="M167.421 128L127.999 167.421L88.5782 128L127.999 88.5787L167.421 128ZM102.367 128L127.999 153.633L153.632 128L127.999 102.367L102.367 128Z" fill="white"/>
<path d="M130.121 118.808C128.559 120.37 126.026 120.37 124.464 118.808C122.902 117.245 122.902 114.713 124.464 113.151C126.026 111.589 128.559 111.589 130.121 113.151C131.683 114.713 131.683 117.245 130.121 118.808Z" fill="white"/>
<path d="M119.514 129.414C117.952 130.976 115.419 130.976 113.857 129.414C112.295 127.852 112.295 125.319 113.857 123.757C115.419 122.195 117.952 122.195 119.514 123.757C121.076 125.319 121.076 127.852 119.514 129.414Z" fill="white"/>
<path d="M142.849 131.535C141.287 133.098 138.754 133.098 137.192 131.535C135.63 129.973 135.63 127.441 137.192 125.879C138.754 124.316 141.287 124.316 142.849 125.879C144.411 127.441 144.411 129.973 142.849 131.535Z" fill="white"/>
<path d="M132.242 142.142C130.68 143.704 128.147 143.704 126.585 142.142C125.023 140.58 125.023 138.047 126.585 136.485C128.147 134.923 130.68 134.923 132.242 136.485C133.804 138.047 133.804 140.58 132.242 142.142Z" fill="white"/>
</svg>
